<?xml version="1.0" encoding="UTF-8"?>
<svg id="Layer_2" data-name="Layer 2" xmlns="http://www.w3.org/2000/svg" viewBox="0 0 120 91.31">
  <defs>
    <style>
      .cls-1 {
        fill: #fff;
      }

      .cls-2 {
        fill: none;
        stroke: #fff;
        stroke-linecap: round;
        stroke-linejoin: round;
        stroke-width: 4px;
      }
    </style>
  </defs>
  <g id="Layer_1-2" data-name="Layer 1">
    <path class="cls-2" d="M42.5,24H5.53c-1.95,0-3.53,1.58-3.53,3.53v43.42c0,1.95,1.58,3.53,3.53,3.53h9.97v14.83l16.31-14.83h28.66c1.95,0,3.53-1.58,3.53-3.53v-5.64"/>
    <path class="cls-2" d="M59.53,2h54.94c1.95,0,3.53,1.58,3.53,3.53v43.42c0,1.95-1.58,3.53-3.53,3.53h-9.97v14.83s-16.31-14.83-16.31-14.83h-28.66c-1.95,0-3.53-1.58-3.53-3.53V5.53c0-1.95,1.58-3.53,3.53-3.53Z"/>
    <path class="cls-1" d="M36.38,36.31h-8.41l-8.8,26.57h6.93l1.44-4.84h9.19l1.48,4.84h6.97l-8.8-26.57ZM29.11,52.49l3.06-10.88,3.01,10.88h-6.06Z"/>
    <path class="cls-1" d="M75.82,14h7.97v-2.05c0-.35.28-.63.63-.63h4.26c.34,0,.62.28.62.62,0,0,0,0,0,0v2.05h8.94c.34,0,.62.28.62.62,0,0,0,0,0,0v4.09c0,.34-.28.62-.62.62h-1.42c-.19,1.2-.47,2.39-.83,3.56v.05c-.42,1.31-.95,2.58-1.59,3.8-.59,1.09-1.24,2.14-1.96,3.14-.61.92-1.29,1.74-2.02,2.59,1.04,1.25,2.16,2.43,3.37,3.51,1.47,1.26,3.02,2.41,4.66,3.43.29.18.38.57.19.86h0s-2.19,3.42-2.19,3.42c-.18.3-.57.4-.87.22-.02-.01-.03-.02-.05-.03-1.8-1.12-3.51-2.37-5.11-3.74h0c-1.31-1.17-2.53-2.42-3.67-3.76-1.17,1.04-2.23,2.03-3.28,2.94h0c-1.25,1.03-2.56,2.02-4.1,3.08-.28.21-.67.16-.89-.11-.01-.01-.02-.03-.03-.04l-2.32-3.35c-.21-.28-.16-.67.11-.89.01-.01.03-.02.04-.03,1.52-1.04,2.75-2.01,4-3.01,1.06-.92,2.09-1.83,3.2-2.9-.93-1.31-1.77-2.67-2.54-4.08-.87-1.67-1.56-3.44-2.06-5.26-.09-.33.1-.68.43-.77,0,0,0,0,0,0l3.91-1.09c.33-.09.68.1.77.43,0,0,0,0,0,0,.63,2.42,1.69,4.7,3.13,6.75l1.16-1.56c.5-.73.96-1.48,1.38-2.26h0c.44-.86.82-1.75,1.12-2.67.24-.73.44-1.48.6-2.24h-15.58c-.35,0-.63-.28-.63-.62v-4.12c0-.35.28-.63.63-.63h0l-.03.04Z"/>
  </g>
</svg>